<svg width="1920" height="1920" viewBox="0 0 1920 1920" fill="none" xmlns="http://www.w3.org/2000/svg">
<g clip-path="url(#clip0_1_2)">
<path d="M-0.199508 850.499C1.90388 850.499 3.55655 848.847 3.55655 846.743V801.37C3.55655 799.267 1.90388 797.614 -0.199508 797.614C-2.3029 797.614 -3.95557 799.267 -3.95557 801.37V846.743C-3.95557 848.847 -2.3029 850.499 -0.199508 850.499Z" fill="#F761A6"/>
<path d="M161.161 959.049C161.161 956.946 159.508 955.293 157.405 955.293H112.032C109.928 955.293 108.275 956.946 108.275 959.049C108.275 959.2 108.275 959.35 108.351 959.5C108.351 959.65 108.275 959.8 108.275 959.951C108.275 962.054 109.928 963.707 112.032 963.707H157.405C159.508 963.707 161.161 962.054 161.161 959.951C161.161 959.8 161.161 959.65 161.086 959.5C161.161 959.35 161.161 959.2 161.161 959.049Z" fill="#F761A6"/>
<path d="M97.0073 906.69C97.6082 906.69 98.2843 906.54 98.8853 906.164L138.174 883.477C139.977 882.426 140.578 880.172 139.526 878.369C138.474 876.566 136.221 875.965 134.418 877.017L95.1292 899.704C93.3263 900.755 92.7253 903.009 93.777 904.812C94.4531 906.014 95.7302 906.69 97.0073 906.69Z" fill="#F761A6"/>
<path d="M80.4806 819.249C78.6777 818.197 76.424 818.798 75.3723 820.601L52.6858 859.889C51.6341 861.692 52.2351 863.946 54.038 864.998C54.6389 865.373 55.2399 865.523 55.916 865.523C57.1931 865.523 58.4701 864.847 59.1462 863.645L81.8328 824.357C82.8845 822.629 82.2835 820.3 80.4806 819.249Z" fill="#F761A6"/>
<path d="M79.4289 959.049C79.4289 952.138 78.5275 945.152 76.7246 938.391C71.2407 917.808 58.0194 900.68 39.6147 890.013C21.21 879.346 -0.274641 876.566 -20.8578 882.05C-55.6389 891.365 -79.9782 922.991 -79.9031 958.974C-79.9031 959.124 -79.9031 959.275 -79.828 959.425C-79.828 959.575 -79.9031 959.725 -79.9031 959.876C-79.9031 966.787 -79.0016 973.773 -77.1987 980.534C-71.7149 1001.12 -58.4935 1018.24 -40.0889 1028.91C-21.6842 1039.58 -0.199501 1042.36 20.3837 1036.87C55.1648 1027.56 79.504 995.934 79.4289 959.951C79.4289 959.8 79.4289 959.65 79.3538 959.5C79.4289 959.35 79.4289 959.2 79.4289 959.049ZM71.9168 959.951C71.9168 992.553 49.9814 1021.17 18.4305 1029.66C-0.199528 1034.62 -19.6559 1032.07 -36.3328 1022.45C-53.0097 1012.84 -64.954 997.286 -69.9871 978.656C-71.6397 972.571 -72.4661 966.261 -72.4661 959.951C-72.4661 959.8 -72.4661 959.65 -72.5412 959.5C-72.5412 959.35 -72.4661 959.2 -72.4661 959.049C-72.4661 926.447 -50.5307 897.826 -18.9798 889.337C-0.349763 884.379 19.1066 886.933 35.7835 896.548C52.4604 906.164 64.4047 921.714 69.4378 940.344C71.0905 946.504 71.9168 952.739 71.9168 959.049C71.9168 959.2 71.9168 959.35 71.9919 959.5C71.9919 959.65 71.9168 959.8 71.9168 959.951Z" fill="#F761A6"/>
<path d="M-0.274642 1068.5C-2.37804 1068.5 -4.0307 1070.15 -4.0307 1072.26V1117.63C-4.0307 1119.73 -2.37804 1121.39 -0.274642 1121.39C1.82875 1121.39 3.48142 1119.73 3.48142 1117.63V1072.26C3.48142 1070.15 1.82875 1068.5 -0.274642 1068.5Z" fill="#F761A6"/>
<path d="M59.1462 1055.35C58.4701 1054.15 57.1931 1053.48 55.916 1053.48C55.315 1053.48 54.6389 1053.63 54.038 1054C52.2351 1055.05 51.6341 1057.31 52.6858 1059.11L75.3723 1098.4C76.424 1100.2 78.6777 1100.8 80.4806 1099.75C82.2835 1098.7 82.8845 1096.45 81.8328 1094.64L59.1462 1055.35Z" fill="#F761A6"/>
<path d="M138.174 1035.52L98.8853 1012.84C98.2843 1012.46 97.6834 1012.31 97.0073 1012.31C95.7302 1012.31 94.4531 1012.99 93.777 1014.19C92.7253 1015.99 93.3263 1018.24 95.1292 1019.3L134.418 1041.98C136.221 1043.03 138.474 1042.43 139.526 1040.63C140.578 1038.9 139.977 1036.57 138.174 1035.52Z" fill="#F761A6"/>
<path d="M1883.4 386C1883.85 386.8 1884.7 387.25 1885.55 387.25C1885.95 387.25 1886.4 387.15 1886.8 386.9C1888 386.2 1888.4 384.7 1887.7 383.5L1872.6 357.35C1871.9 356.15 1870.4 355.75 1869.2 356.45C1868 357.15 1867.6 358.65 1868.3 359.85L1883.4 386Z" fill="#F761A6"/>
<path d="M1859.45 409.9L1833.3 394.8C1832.1 394.1 1830.6 394.5 1829.9 395.7C1829.2 396.9 1829.6 398.4 1830.8 399.1L1856.95 414.2C1857.35 414.45 1857.75 414.55 1858.2 414.55C1859.05 414.55 1859.9 414.1 1860.35 413.3C1861.05 412.15 1860.65 410.6 1859.45 409.9Z" fill="#F761A6"/>
<path d="M1975.95 449.45C1975.95 444.85 1975.35 440.2 1974.15 435.7C1970.5 422 1961.7 410.6 1949.45 403.5C1937.2 396.4 1922.9 394.55 1909.2 398.2C1886.05 404.4 1869.85 425.45 1869.9 449.4C1869.9 449.5 1869.9 449.6 1869.95 449.7C1869.95 449.8 1869.9 449.9 1869.9 450C1869.9 454.6 1870.5 459.25 1871.7 463.75C1875.35 477.45 1884.15 488.85 1896.4 495.95C1908.65 503.05 1922.95 504.9 1936.65 501.25C1959.8 495.05 1976 474 1975.95 450.05C1975.95 449.95 1975.95 449.85 1975.9 449.75C1975.95 449.65 1975.95 449.55 1975.95 449.45ZM1970.95 450.05C1970.95 471.75 1956.35 490.8 1935.35 496.45C1922.95 499.75 1910 498.05 1898.9 491.65C1887.8 485.25 1879.85 474.9 1876.5 462.5C1875.4 458.45 1874.85 454.25 1874.85 450.05C1874.85 449.95 1874.85 449.85 1874.8 449.75C1874.8 449.65 1874.85 449.55 1874.85 449.45C1874.85 427.75 1889.45 408.7 1910.45 403.05C1922.85 399.75 1935.8 401.45 1946.9 407.85C1958 414.25 1965.95 424.6 1969.3 437C1970.4 441.1 1970.95 445.25 1970.95 449.45C1970.95 449.55 1970.95 449.65 1971 449.75C1971 449.85 1970.95 449.95 1970.95 450.05Z" fill="#F761A6"/>
<path d="M1850.7 450.05C1850.7 449.95 1850.7 449.85 1850.65 449.75C1850.65 449.65 1850.7 449.55 1850.7 449.45C1850.7 448.05 1849.6 446.95 1848.2 446.95H1818C1816.6 446.95 1815.5 448.05 1815.5 449.45C1815.5 449.55 1815.5 449.65 1815.55 449.75C1815.55 449.85 1815.5 449.95 1815.5 450.05C1815.5 451.45 1816.6 452.55 1818 452.55H1848.2C1849.55 452.55 1850.7 451.45 1850.7 450.05Z" fill="#F761A6"/>
<path d="M1858.2 484.95C1857.8 484.95 1857.35 485.05 1856.95 485.3L1830.8 500.35C1829.6 501.05 1829.2 502.55 1829.9 503.75C1830.6 504.95 1832.1 505.35 1833.3 504.65L1859.45 489.55C1860.65 488.85 1861.05 487.35 1860.35 486.15C1859.9 485.4 1859.05 484.95 1858.2 484.95Z" fill="#F761A6"/>
<path d="M1886.8 512.65C1886.4 512.4 1886 512.3 1885.55 512.3C1884.7 512.3 1883.85 512.75 1883.4 513.55L1868.3 539.7C1867.6 540.9 1868 542.4 1869.2 543.1C1870.4 543.8 1871.9 543.4 1872.6 542.2L1887.7 516.05C1888.4 514.85 1888 513.3 1886.8 512.65Z" fill="#F761A6"/>
<path d="M1919.77 1448.16C1921.62 1448.16 1923.09 1446.7 1923.09 1444.84V1404.73C1923.09 1402.87 1921.62 1401.41 1919.77 1401.41C1917.91 1401.41 1916.45 1402.87 1916.45 1404.73V1444.84C1916.45 1446.7 1917.91 1448.16 1919.77 1448.16Z" fill="#F761A6"/>
<path d="M1867.25 1459.84C1867.84 1460.91 1868.97 1461.5 1870.1 1461.5C1870.63 1461.5 1871.23 1461.37 1871.76 1461.04C1873.35 1460.11 1873.88 1458.12 1872.96 1456.52L1852.9 1421.8C1851.97 1420.2 1849.98 1419.67 1848.39 1420.6C1846.79 1421.53 1846.26 1423.52 1847.19 1425.12L1867.25 1459.84Z" fill="#F761A6"/>
<path d="M1835.44 1491.58L1800.71 1471.53C1799.12 1470.6 1797.13 1471.13 1796.2 1472.72C1795.27 1474.32 1795.8 1476.31 1797.4 1477.24L1832.12 1497.29C1832.65 1497.62 1833.18 1497.76 1833.78 1497.76C1834.91 1497.76 1836.04 1497.16 1836.64 1496.1C1837.57 1494.57 1837.03 1492.51 1835.44 1491.58Z" fill="#F761A6"/>
<path d="M1990.15 1544.1C1990.15 1537.99 1989.35 1531.82 1987.76 1525.84C1982.91 1507.65 1971.22 1492.51 1954.96 1483.08C1938.69 1473.65 1919.7 1471.2 1901.51 1476.04C1870.76 1484.28 1849.25 1512.23 1849.32 1544.04C1849.32 1544.17 1849.32 1544.3 1849.38 1544.43C1849.38 1544.57 1849.32 1544.7 1849.32 1544.83C1849.32 1550.94 1850.11 1557.12 1851.71 1563.09C1856.56 1581.28 1868.24 1596.42 1884.51 1605.85C1900.78 1615.28 1919.77 1617.74 1937.96 1612.89C1968.7 1604.66 1990.21 1576.7 1990.15 1544.9C1990.15 1544.77 1990.15 1544.63 1990.08 1544.5C1990.15 1544.37 1990.15 1544.23 1990.15 1544.1ZM1983.51 1544.9C1983.51 1573.71 1964.12 1599.01 1936.23 1606.52C1919.77 1610.9 1902.57 1608.64 1887.83 1600.14C1873.09 1591.64 1862.53 1577.9 1858.08 1561.43C1856.62 1556.05 1855.89 1550.48 1855.89 1544.9C1855.89 1544.77 1855.89 1544.63 1855.82 1544.5C1855.82 1544.37 1855.89 1544.23 1855.89 1544.1C1855.89 1515.29 1875.28 1489.99 1903.17 1482.48C1919.63 1478.1 1936.83 1480.36 1951.57 1488.86C1966.31 1497.36 1976.87 1511.1 1981.32 1527.57C1982.78 1533.01 1983.51 1538.52 1983.51 1544.1C1983.51 1544.23 1983.51 1544.37 1983.57 1544.5C1983.57 1544.63 1983.51 1544.77 1983.51 1544.9Z" fill="#F761A6"/>
<path d="M1919.7 1640.84C1917.84 1640.84 1916.38 1642.3 1916.38 1644.16V1684.27C1916.38 1686.13 1917.84 1687.59 1919.7 1687.59C1921.56 1687.59 1923.02 1686.13 1923.02 1684.27V1644.16C1923.02 1642.3 1921.56 1640.84 1919.7 1640.84Z" fill="#F761A6"/>
<path d="M1823.82 1544.9C1823.82 1544.77 1823.82 1544.63 1823.75 1544.5C1823.75 1544.37 1823.82 1544.23 1823.82 1544.1C1823.82 1542.24 1822.36 1540.78 1820.5 1540.78H1780.4C1778.54 1540.78 1777.08 1542.24 1777.08 1544.1C1777.08 1544.23 1777.08 1544.37 1777.14 1544.5C1777.14 1544.63 1777.08 1544.77 1777.08 1544.9C1777.08 1546.76 1778.54 1548.22 1780.4 1548.22H1820.5C1822.29 1548.22 1823.82 1546.76 1823.82 1544.9Z" fill="#F761A6"/>
<path d="M1833.78 1591.24C1833.25 1591.24 1832.65 1591.38 1832.12 1591.71L1797.4 1611.69C1795.8 1612.62 1795.27 1614.62 1796.2 1616.21C1797.13 1617.8 1799.12 1618.33 1800.71 1617.4L1835.44 1597.35C1837.03 1596.42 1837.57 1594.43 1836.64 1592.84C1836.04 1591.84 1834.91 1591.24 1833.78 1591.24Z" fill="#F761A6"/>
<path d="M1871.76 1628.03C1871.23 1627.7 1870.7 1627.56 1870.1 1627.56C1868.97 1627.56 1867.84 1628.16 1867.25 1629.22L1847.19 1663.95C1846.26 1665.54 1846.79 1667.53 1848.39 1668.46C1849.98 1669.39 1851.97 1668.86 1852.9 1667.27L1872.96 1632.54C1873.88 1630.95 1873.35 1628.89 1871.76 1628.03Z" fill="#F761A6"/>
</g>
<defs>
<clipPath id="clip0_1_2">
<rect width="1920" height="1920" fill="white"/>
</clipPath>
</defs>
</svg>
