<svg width="1920" height="1920" viewBox="0 0 1920 1920" fill="none" xmlns="http://www.w3.org/2000/svg">
<g clip-path="url(#clip0_1_2)">
<path d="M0.610504 958.416C1.38401 958.416 1.99176 957.808 1.99176 957.035V940.349C1.99176 939.575 1.38401 938.968 0.610504 938.968C-0.163001 938.968 -0.770756 939.575 -0.770756 940.349V957.035C-0.770756 957.808 -0.163001 958.416 0.610504 958.416Z" fill="#F761A6"/>
<path d="M59.9494 998.334C59.9494 997.561 59.3417 996.953 58.5682 996.953H41.8826C41.1091 996.953 40.5013 997.561 40.5013 998.334C40.5013 998.39 40.5013 998.445 40.5289 998.5C40.5289 998.555 40.5013 998.611 40.5013 998.666C40.5013 999.439 41.1091 1000.05 41.8826 1000.05H58.5682C59.3417 1000.05 59.9494 999.439 59.9494 998.666C59.9494 998.611 59.9494 998.555 59.9218 998.5C59.9494 998.445 59.9494 998.39 59.9494 998.334Z" fill="#F761A6"/>
<path d="M36.3575 979.079C36.5785 979.079 36.8271 979.024 37.0481 978.886L51.4961 970.543C52.1591 970.157 52.3801 969.328 51.9934 968.665C51.6066 968.002 50.7779 967.781 50.1149 968.168L35.6669 976.51C35.0039 976.897 34.7829 977.726 35.1696 978.389C35.4182 978.831 35.8879 979.079 36.3575 979.079Z" fill="#F761A6"/>
<path d="M30.28 946.924C29.617 946.537 28.7882 946.758 28.4014 947.421L20.0586 961.869C19.6719 962.532 19.8929 963.361 20.5559 963.748C20.7769 963.886 20.9979 963.941 21.2465 963.941C21.7162 963.941 22.1858 963.692 22.4344 963.25L30.7772 948.802C31.164 948.167 30.943 947.311 30.28 946.924Z" fill="#F761A6"/>
<path d="M29.8932 998.334C29.8932 995.793 29.5617 993.224 28.8987 990.737C26.8821 983.168 22.02 976.869 15.2519 972.947C8.48368 969.024 0.582875 968.002 -6.98643 970.018C-19.7769 973.444 -28.7275 985.074 -28.6998 998.307C-28.6998 998.362 -28.6998 998.417 -28.6722 998.472C-28.6722 998.528 -28.6998 998.583 -28.6998 998.638C-28.6998 1001.18 -28.3683 1003.75 -27.7053 1006.24C-25.6887 1013.8 -20.8267 1020.1 -14.0585 1024.03C-7.29031 1027.95 0.610507 1028.97 8.17981 1026.95C20.9703 1023.53 29.9208 1011.9 29.8932 998.666C29.8932 998.611 29.8932 998.555 29.8656 998.5C29.8932 998.445 29.8932 998.39 29.8932 998.334ZM27.1307 998.666C27.1307 1010.66 19.0641 1021.18 7.46155 1024.3C0.610497 1026.13 -6.54443 1025.19 -12.6772 1021.65C-18.81 1018.11 -23.2024 1012.4 -25.0533 1005.54C-25.6611 1003.31 -25.9649 1000.99 -25.9649 998.666C-25.9649 998.611 -25.9649 998.555 -25.9926 998.5C-25.9926 998.445 -25.9649 998.39 -25.9649 998.334C-25.9649 986.345 -17.8984 975.82 -6.2958 972.698C0.555249 970.875 7.71018 971.814 13.843 975.35C19.9758 978.886 24.3682 984.605 26.2191 991.456C26.8268 993.721 27.1307 996.014 27.1307 998.334C27.1307 998.39 27.1307 998.445 27.1583 998.5C27.1583 998.555 27.1307 998.611 27.1307 998.666Z" fill="#F761A6"/>
<path d="M0.582871 1038.58C-0.190635 1038.58 -0.798389 1039.19 -0.798389 1039.97V1056.65C-0.798389 1057.42 -0.190635 1058.03 0.582871 1058.03C1.35638 1058.03 1.96413 1057.42 1.96413 1056.65V1039.97C1.96413 1039.19 1.35638 1038.58 0.582871 1038.58Z" fill="#F761A6"/>
<path d="M22.4344 1033.75C22.1858 1033.31 21.7162 1033.06 21.2465 1033.06C21.0255 1033.06 20.7769 1033.11 20.5559 1033.25C19.8929 1033.64 19.6719 1034.47 20.0586 1035.13L28.4014 1049.58C28.7882 1050.24 29.617 1050.46 30.28 1050.08C30.943 1049.69 31.164 1048.86 30.7772 1048.2L22.4344 1033.75Z" fill="#F761A6"/>
<path d="M51.4961 1026.46L37.0481 1018.11C36.8271 1017.98 36.6061 1017.92 36.3575 1017.92C35.8879 1017.92 35.4182 1018.17 35.1696 1018.61C34.7829 1019.27 35.0039 1020.1 35.6669 1020.49L50.1149 1028.83C50.7779 1029.22 51.6066 1029 51.9934 1028.34C52.3801 1027.7 52.1591 1026.84 51.4961 1026.46Z" fill="#F761A6"/>
<path d="M1883.4 386C1883.85 386.8 1884.7 387.25 1885.55 387.25C1885.95 387.25 1886.4 387.15 1886.8 386.9C1888 386.2 1888.4 384.7 1887.7 383.5L1872.6 357.35C1871.9 356.15 1870.4 355.75 1869.2 356.45C1868 357.15 1867.6 358.65 1868.3 359.85L1883.4 386Z" fill="#F761A6"/>
<path d="M1859.45 409.9L1833.3 394.8C1832.1 394.1 1830.6 394.5 1829.9 395.7C1829.2 396.9 1829.6 398.4 1830.8 399.1L1856.95 414.2C1857.35 414.45 1857.75 414.55 1858.2 414.55C1859.05 414.55 1859.9 414.1 1860.35 413.3C1861.05 412.15 1860.65 410.6 1859.45 409.9Z" fill="#F761A6"/>
<path d="M1975.95 449.45C1975.95 444.85 1975.35 440.2 1974.15 435.7C1970.5 422 1961.7 410.6 1949.45 403.5C1937.2 396.4 1922.9 394.55 1909.2 398.2C1886.05 404.4 1869.85 425.45 1869.9 449.4C1869.9 449.5 1869.9 449.6 1869.95 449.7C1869.95 449.8 1869.9 449.9 1869.9 450C1869.9 454.6 1870.5 459.25 1871.7 463.75C1875.35 477.45 1884.15 488.85 1896.4 495.95C1908.65 503.05 1922.95 504.9 1936.65 501.25C1959.8 495.05 1976 474 1975.95 450.05C1975.95 449.95 1975.95 449.85 1975.9 449.75C1975.95 449.65 1975.95 449.55 1975.95 449.45ZM1970.95 450.05C1970.95 471.75 1956.35 490.8 1935.35 496.45C1922.95 499.75 1910 498.05 1898.9 491.65C1887.8 485.25 1879.85 474.9 1876.5 462.5C1875.4 458.45 1874.85 454.25 1874.85 450.05C1874.85 449.95 1874.85 449.85 1874.8 449.75C1874.8 449.65 1874.85 449.55 1874.85 449.45C1874.85 427.75 1889.45 408.7 1910.45 403.05C1922.85 399.75 1935.8 401.45 1946.9 407.85C1958 414.25 1965.95 424.6 1969.3 437C1970.4 441.1 1970.95 445.25 1970.95 449.45C1970.95 449.55 1970.95 449.65 1971 449.75C1971 449.85 1970.95 449.95 1970.95 450.05Z" fill="#F761A6"/>
<path d="M1850.7 450.05C1850.7 449.95 1850.7 449.85 1850.65 449.75C1850.65 449.65 1850.7 449.55 1850.7 449.45C1850.7 448.05 1849.6 446.95 1848.2 446.95H1818C1816.6 446.95 1815.5 448.05 1815.5 449.45C1815.5 449.55 1815.5 449.65 1815.55 449.75C1815.55 449.85 1815.5 449.95 1815.5 450.05C1815.5 451.45 1816.6 452.55 1818 452.55H1848.2C1849.55 452.55 1850.7 451.45 1850.7 450.05Z" fill="#F761A6"/>
<path d="M1858.2 484.95C1857.8 484.95 1857.35 485.05 1856.95 485.3L1830.8 500.35C1829.6 501.05 1829.2 502.55 1829.9 503.75C1830.6 504.95 1832.1 505.35 1833.3 504.65L1859.45 489.55C1860.65 488.85 1861.05 487.35 1860.35 486.15C1859.9 485.4 1859.05 484.95 1858.2 484.95Z" fill="#F761A6"/>
<path d="M1886.8 512.65C1886.4 512.4 1886 512.3 1885.55 512.3C1884.7 512.3 1883.85 512.75 1883.4 513.55L1868.3 539.7C1867.6 540.9 1868 542.4 1869.2 543.1C1870.4 543.8 1871.9 543.4 1872.6 542.2L1887.7 516.05C1888.4 514.85 1888 513.3 1886.8 512.65Z" fill="#F761A6"/>
<path d="M1919.65 1566.41C1920.71 1566.41 1921.55 1565.58 1921.55 1564.52V1541.58C1921.55 1540.52 1920.71 1539.69 1919.65 1539.69C1918.59 1539.69 1917.75 1540.52 1917.75 1541.58V1564.52C1917.75 1565.58 1918.59 1566.41 1919.65 1566.41Z" fill="#F761A6"/>
<path d="M1889.62 1573.1C1889.96 1573.7 1890.61 1574.04 1891.25 1574.04C1891.56 1574.04 1891.9 1573.97 1892.2 1573.78C1893.11 1573.25 1893.42 1572.11 1892.89 1571.2L1881.42 1551.34C1880.89 1550.43 1879.75 1550.13 1878.84 1550.66C1877.93 1551.19 1877.63 1552.33 1878.16 1553.24L1889.62 1573.1Z" fill="#F761A6"/>
<path d="M1871.44 1591.24L1851.58 1579.78C1850.67 1579.25 1849.53 1579.55 1849 1580.46C1848.47 1581.37 1848.77 1582.51 1849.68 1583.04L1869.54 1594.51C1869.84 1594.7 1870.15 1594.77 1870.49 1594.77C1871.13 1594.77 1871.78 1594.43 1872.12 1593.82C1872.65 1592.95 1872.35 1591.77 1871.44 1591.24Z" fill="#F761A6"/>
<path d="M1959.89 1621.27C1959.89 1617.78 1959.44 1614.25 1958.53 1610.83C1955.76 1600.43 1949.07 1591.77 1939.77 1586.38C1930.47 1580.99 1919.61 1579.59 1909.21 1582.36C1891.63 1587.07 1879.33 1603.05 1879.37 1621.23C1879.37 1621.31 1879.37 1621.39 1879.41 1621.46C1879.41 1621.54 1879.37 1621.61 1879.37 1621.69C1879.37 1625.18 1879.83 1628.71 1880.74 1632.13C1883.51 1642.53 1890.19 1651.19 1899.49 1656.58C1908.79 1661.97 1919.65 1663.37 1930.05 1660.6C1947.63 1655.9 1959.93 1639.91 1959.89 1621.73C1959.89 1621.65 1959.89 1621.58 1959.86 1621.5C1959.89 1621.42 1959.89 1621.35 1959.89 1621.27ZM1956.1 1621.73C1956.1 1638.2 1945.01 1652.67 1929.07 1656.96C1919.65 1659.46 1909.82 1658.17 1901.39 1653.31C1892.96 1648.45 1886.93 1640.6 1884.38 1631.18C1883.55 1628.11 1883.13 1624.92 1883.13 1621.73C1883.13 1621.65 1883.13 1621.58 1883.09 1621.5C1883.09 1621.42 1883.13 1621.35 1883.13 1621.27C1883.13 1604.8 1894.22 1590.33 1910.16 1586.04C1919.58 1583.54 1929.41 1584.83 1937.84 1589.69C1946.27 1594.55 1952.3 1602.4 1954.85 1611.82C1955.68 1614.93 1956.1 1618.08 1956.1 1621.27C1956.1 1621.35 1956.1 1621.42 1956.14 1621.5C1956.14 1621.58 1956.1 1621.65 1956.1 1621.73Z" fill="#F761A6"/>
<path d="M1919.61 1676.59C1918.55 1676.59 1917.72 1677.42 1917.72 1678.48V1701.42C1917.72 1702.48 1918.55 1703.31 1919.61 1703.31C1920.68 1703.31 1921.51 1702.48 1921.51 1701.42V1678.48C1921.51 1677.42 1920.68 1676.59 1919.61 1676.59Z" fill="#F761A6"/>
<path d="M1864.79 1621.73C1864.79 1621.65 1864.79 1621.58 1864.76 1621.5C1864.76 1621.42 1864.79 1621.35 1864.79 1621.27C1864.79 1620.21 1863.96 1619.37 1862.9 1619.37H1839.96C1838.9 1619.37 1838.07 1620.21 1838.07 1621.27C1838.07 1621.35 1838.07 1621.42 1838.1 1621.5C1838.1 1621.58 1838.07 1621.65 1838.07 1621.73C1838.07 1622.79 1838.9 1623.63 1839.96 1623.63H1862.9C1863.92 1623.63 1864.79 1622.79 1864.79 1621.73Z" fill="#F761A6"/>
<path d="M1870.49 1648.23C1870.18 1648.23 1869.84 1648.3 1869.54 1648.49L1849.68 1659.92C1848.77 1660.45 1848.47 1661.59 1849 1662.5C1849.53 1663.41 1850.67 1663.72 1851.58 1663.19L1871.44 1651.72C1872.35 1651.19 1872.65 1650.05 1872.12 1649.14C1871.78 1648.57 1871.13 1648.23 1870.49 1648.23Z" fill="#F761A6"/>
<path d="M1892.2 1669.26C1891.9 1669.07 1891.6 1668.99 1891.25 1668.99C1890.61 1668.99 1889.96 1669.34 1889.62 1669.94L1878.16 1689.8C1877.63 1690.71 1877.93 1691.85 1878.84 1692.38C1879.75 1692.91 1880.89 1692.61 1881.42 1691.7L1892.89 1671.84C1893.42 1670.93 1893.11 1669.75 1892.2 1669.26Z" fill="#F761A6"/>
<path d="M1919.65 1146.41C1920.71 1146.41 1921.55 1145.58 1921.55 1144.52V1121.58C1921.55 1120.52 1920.71 1119.69 1919.65 1119.69C1918.59 1119.69 1917.75 1120.52 1917.75 1121.58V1144.52C1917.75 1145.58 1918.59 1146.41 1919.65 1146.41Z" fill="#F761A6"/>
<path d="M1889.62 1153.1C1889.96 1153.7 1890.61 1154.04 1891.25 1154.04C1891.56 1154.04 1891.9 1153.97 1892.2 1153.78C1893.11 1153.25 1893.42 1152.11 1892.89 1151.2L1881.42 1131.34C1880.89 1130.43 1879.75 1130.13 1878.84 1130.66C1877.93 1131.19 1877.63 1132.33 1878.16 1133.24L1889.62 1153.1Z" fill="#F761A6"/>
<path d="M1871.44 1171.24L1851.58 1159.78C1850.67 1159.25 1849.53 1159.55 1849 1160.46C1848.47 1161.37 1848.77 1162.51 1849.68 1163.04L1869.54 1174.51C1869.84 1174.7 1870.15 1174.77 1870.49 1174.77C1871.13 1174.77 1871.78 1174.43 1872.12 1173.82C1872.65 1172.95 1872.35 1171.77 1871.44 1171.24Z" fill="#F761A6"/>
<path d="M1959.89 1201.27C1959.89 1197.78 1959.44 1194.25 1958.53 1190.83C1955.76 1180.43 1949.07 1171.77 1939.77 1166.38C1930.47 1160.99 1919.61 1159.59 1909.21 1162.36C1891.63 1167.07 1879.33 1183.05 1879.37 1201.23C1879.37 1201.31 1879.37 1201.39 1879.41 1201.46C1879.41 1201.54 1879.37 1201.61 1879.37 1201.69C1879.37 1205.18 1879.83 1208.71 1880.74 1212.13C1883.51 1222.53 1890.19 1231.19 1899.49 1236.58C1908.79 1241.97 1919.65 1243.37 1930.05 1240.6C1947.63 1235.9 1959.93 1219.91 1959.89 1201.73C1959.89 1201.65 1959.89 1201.58 1959.86 1201.5C1959.89 1201.42 1959.89 1201.35 1959.89 1201.27ZM1956.1 1201.73C1956.1 1218.2 1945.01 1232.67 1929.07 1236.96C1919.65 1239.46 1909.82 1238.17 1901.39 1233.31C1892.96 1228.45 1886.93 1220.6 1884.38 1211.18C1883.55 1208.11 1883.13 1204.92 1883.13 1201.73C1883.13 1201.65 1883.13 1201.58 1883.09 1201.5C1883.09 1201.42 1883.13 1201.35 1883.13 1201.27C1883.13 1184.8 1894.22 1170.33 1910.16 1166.04C1919.58 1163.54 1929.41 1164.83 1937.84 1169.69C1946.27 1174.55 1952.3 1182.4 1954.85 1191.82C1955.68 1194.93 1956.1 1198.08 1956.1 1201.27C1956.1 1201.35 1956.1 1201.42 1956.14 1201.5C1956.14 1201.58 1956.1 1201.65 1956.1 1201.73Z" fill="#F761A6"/>
<path d="M1919.61 1256.59C1918.55 1256.59 1917.72 1257.42 1917.72 1258.48V1281.42C1917.72 1282.48 1918.55 1283.31 1919.61 1283.31C1920.68 1283.31 1921.51 1282.48 1921.51 1281.42V1258.48C1921.51 1257.42 1920.68 1256.59 1919.61 1256.59Z" fill="#F761A6"/>
<path d="M1864.79 1201.73C1864.79 1201.65 1864.79 1201.58 1864.76 1201.5C1864.76 1201.42 1864.79 1201.35 1864.79 1201.27C1864.79 1200.21 1863.96 1199.37 1862.9 1199.37H1839.96C1838.9 1199.37 1838.07 1200.21 1838.07 1201.27C1838.07 1201.35 1838.07 1201.42 1838.1 1201.5C1838.1 1201.58 1838.07 1201.65 1838.07 1201.73C1838.07 1202.79 1838.9 1203.63 1839.96 1203.63H1862.9C1863.92 1203.63 1864.79 1202.79 1864.79 1201.73Z" fill="#F761A6"/>
<path d="M1870.49 1228.23C1870.18 1228.23 1869.84 1228.3 1869.54 1228.49L1849.68 1239.92C1848.77 1240.45 1848.47 1241.59 1849 1242.5C1849.53 1243.41 1850.67 1243.72 1851.58 1243.19L1871.44 1231.72C1872.35 1231.19 1872.65 1230.05 1872.12 1229.14C1871.78 1228.57 1871.13 1228.23 1870.49 1228.23Z" fill="#F761A6"/>
<path d="M1892.2 1249.26C1891.9 1249.07 1891.6 1248.99 1891.25 1248.99C1890.61 1248.99 1889.96 1249.34 1889.62 1249.94L1878.16 1269.8C1877.63 1270.71 1877.93 1271.85 1878.84 1272.38C1879.75 1272.91 1880.89 1272.61 1881.42 1271.7L1892.89 1251.84C1893.42 1250.93 1893.11 1249.75 1892.2 1249.26Z" fill="#F761A6"/>
<path d="M0.651862 241.414C1.71487 241.414 2.55008 240.578 2.55008 239.515V216.585C2.55008 215.522 1.71487 214.687 0.651862 214.687C-0.411143 214.687 -1.24636 215.522 -1.24636 216.585V239.515C-1.24636 240.578 -0.411143 241.414 0.651862 241.414Z" fill="#F761A6"/>
<path d="M82.1995 296.272C82.1995 295.209 81.3643 294.374 80.3013 294.374H57.3708C56.3078 294.374 55.4725 295.209 55.4725 296.272C55.4725 296.348 55.4725 296.424 55.5105 296.5C55.5105 296.576 55.4725 296.652 55.4725 296.728C55.4725 297.791 56.3078 298.626 57.3708 298.626H80.3013C81.3643 298.626 82.1995 297.791 82.1995 296.728C82.1995 296.652 82.1995 296.576 82.1616 296.5C82.1995 296.424 82.1995 296.348 82.1995 296.272Z" fill="#F761A6"/>
<path d="M49.7779 269.811C50.0816 269.811 50.4233 269.735 50.727 269.545L70.5824 258.08C71.4935 257.548 71.7972 256.41 71.2657 255.498C70.7342 254.587 69.5953 254.284 68.6842 254.815L48.8288 266.28C47.9176 266.812 47.6139 267.951 48.1454 268.862C48.4871 269.469 49.1325 269.811 49.7779 269.811Z" fill="#F761A6"/>
<path d="M41.4257 225.62C40.5145 225.089 39.3756 225.393 38.8441 226.304L27.3788 246.159C26.8473 247.07 27.1511 248.209 28.0622 248.741C28.3659 248.931 28.6696 249.006 29.0113 249.006C29.6567 249.006 30.3021 248.665 30.6438 248.057L42.109 228.202C42.6406 227.329 42.3368 226.152 41.4257 225.62Z" fill="#F761A6"/>
<path d="M40.8942 296.272C40.8942 292.779 40.4386 289.249 39.5275 285.832C36.7561 275.43 30.0743 266.774 20.773 261.383C11.4717 255.992 0.613889 254.587 -9.78837 257.359C-27.3659 262.066 -39.6664 278.049 -39.6284 296.234C-39.6284 296.31 -39.6284 296.386 -39.5905 296.462C-39.5905 296.538 -39.6284 296.614 -39.6284 296.69C-39.6284 300.183 -39.1729 303.713 -38.2617 307.13C-35.4903 317.532 -28.8086 326.188 -19.5073 331.579C-10.206 336.97 0.651863 338.375 11.0541 335.603C28.6317 330.896 40.9321 314.913 40.8942 296.728C40.8942 296.652 40.8942 296.576 40.8562 296.5C40.8942 296.424 40.8942 296.348 40.8942 296.272ZM37.0977 296.728C37.0977 313.204 26.0121 327.669 10.067 331.959C0.651849 334.464 -9.18094 333.174 -17.6091 328.314C-26.0372 323.455 -32.0735 315.596 -34.6171 306.181C-35.4523 303.106 -35.87 299.917 -35.87 296.728C-35.87 296.652 -35.8699 296.576 -35.9079 296.5C-35.9079 296.424 -35.87 296.348 -35.87 296.272C-35.87 279.796 -24.7843 265.331 -8.83926 261.041C0.575924 258.536 10.4087 259.826 18.8368 264.686C27.2649 269.545 33.3013 277.404 35.8449 286.819C36.6801 289.932 37.0977 293.083 37.0977 296.272C37.0977 296.348 37.0977 296.424 37.1357 296.5C37.1357 296.576 37.0977 296.652 37.0977 296.728Z" fill="#F761A6"/>
<path d="M0.613898 351.586C-0.449107 351.586 -1.28432 352.422 -1.28432 353.485V376.415C-1.28432 377.478 -0.449107 378.313 0.613898 378.313C1.6769 378.313 2.51212 377.478 2.51212 376.415V353.485C2.51212 352.422 1.6769 351.586 0.613898 351.586Z" fill="#F761A6"/>
<path d="M30.6438 344.943C30.3021 344.335 29.6567 343.994 29.0113 343.994C28.7076 343.994 28.3659 344.069 28.0622 344.259C27.1511 344.791 26.8473 345.93 27.3788 346.841L38.8441 366.696C39.3756 367.607 40.5145 367.911 41.4257 367.38C42.3368 366.848 42.6406 365.709 42.109 364.798L30.6438 344.943Z" fill="#F761A6"/>
<path d="M70.5824 334.92L50.727 323.455C50.4233 323.265 50.1195 323.189 49.7779 323.189C49.1325 323.189 48.4871 323.531 48.1454 324.138C47.6139 325.049 47.9176 326.188 48.8288 326.72L68.6842 338.185C69.5953 338.716 70.7342 338.413 71.2657 337.502C71.7972 336.628 71.4935 335.452 70.5824 334.92Z" fill="#F761A6"/>
</g>
<defs>
<clipPath id="clip0_1_2">
<rect width="1920" height="1920" fill="white"/>
</clipPath>
</defs>
</svg>
