<?xml version="1.0" encoding="utf-8"?>
<!-- Generator: Adobe Illustrator 26.4.1, SVG Export Plug-In . SVG Version: 6.00 Build 0)  -->
<svg version="1.1" id="Vrstva_1" xmlns="http://www.w3.org/2000/svg" xmlns:xlink="http://www.w3.org/1999/xlink" x="0px" y="0px"
	 viewBox="0 0 1000 1000" style="enable-background:new 0 0 1000 1000;" xml:space="preserve">
<style type="text/css">
	.st0{fill:#FFFFFF;}
</style>
<g>
	<path class="st0" d="M157.5,569.2c1.8-1.2,4.2-1.9,7.2-1.9c2.5,0,5.1,0.5,7.9,1.5c2.8,1,5.6,2.2,8.3,3.7l5.4-10.8
		c-2.9-1.9-6.1-3.5-9.7-4.9c-3.6-1.4-8.3-2-14.1-2c-4.4,0.2-8.3,1.2-11.7,3c-3.4,1.8-6,4.2-7.8,7.3c-1.9,3.1-2.8,6.7-2.8,10.8
		c0,3.4,0.6,6.4,1.9,8.7c1.3,2.4,2.9,4.4,5,5.9c2,1.6,4.2,2.9,6.6,4s4.6,2.1,6.8,2.9c1.9,0.7,3.6,1.6,5.2,2.5s2.9,2,3.8,3.2
		c0.9,1.2,1.4,2.5,1.4,3.9c0,2.1-0.6,3.7-1.7,4.9c-1.1,1.2-2.6,2-4.3,2.5c-1.7,0.5-3.4,0.7-5.1,0.7c-1.7,0-3.5-0.3-5.6-0.8
		c-2-0.5-4-1.3-6-2.2s-3.8-2-5.5-3.3l-6.2,11c2.5,1.8,5.2,3.2,7.9,4.3c2.7,1.1,5.5,2,8.3,2.5c2.8,0.5,5.6,0.8,8.3,0.8
		c5.3,0,9.8-1,13.5-2.9c3.6-1.9,6.4-4.4,8.3-7.6c1.9-3.1,2.8-6.5,2.8-10.1c0-3.4-0.5-6.4-1.5-8.7c-1-2.4-2.3-4.4-3.9-5.9
		c-1.6-1.6-3.5-2.9-5.5-4c-2-1.1-4.1-2-6.2-2.8c-2.3-0.8-4.5-1.8-6.6-2.8c-2.1-1-3.8-2.2-5.2-3.6c-1.3-1.3-2-2.8-2-4.5
		C154.9,572.3,155.7,570.4,157.5,569.2z"/>
	<path class="st0" d="M239.4,593.4c-1.9-3.4-4.7-6.2-8.2-8.1s-7.8-3-12.7-3c-4.8,0-9.1,1-12.8,3c-3.7,2-6.6,4.7-8.6,8.1
		c-2,3.4-3.1,7.3-3.1,11.7c0,4.8,1,8.9,3.1,12.4c2.1,3.5,5,6.1,8.6,7.9c3.7,1.8,7.9,2.7,12.5,2.7c5,0,9.3-1,12.9-3
		c3.6-2,6.3-4.8,8.2-8.2c1.9-3.5,2.9-7.4,2.9-11.8C242.2,600.7,241.3,596.8,239.4,593.4z M227.2,611.2c-0.8,1.8-2,3.2-3.6,4.2
		s-3.4,1.6-5.6,1.6c-2,0-3.7-0.5-5.3-1.6s-2.8-2.5-3.7-4.2c-0.9-1.8-1.4-3.8-1.4-6c0-2.3,0.5-4.3,1.4-6c0.9-1.8,2.1-3.2,3.7-4.2
		c1.6-1,3.3-1.6,5.3-1.6c2.2,0,4,0.5,5.6,1.6c1.6,1,2.8,2.4,3.6,4.2c0.8,1.8,1.3,3.8,1.3,6C228.5,607.4,228.1,609.4,227.2,611.2z"/>
	<rect x="253" y="550" class="st0" width="13.7" height="76.9"/>
	<polygon class="st0" points="305.4,577.3 319.9,564.1 304.8,564.1 297.2,577.3 	"/>
	<path class="st0" d="M313.8,584.3l-0.9,4.4c-1.4-1.6-3.1-3.1-5.2-4.4c-2.2-1.4-5.4-2.1-9.6-2.1c-3.6,0-7,1-10.1,2.9
		c-3.2,1.9-5.8,4.6-7.7,8.1c-2,3.5-2.9,7.7-2.9,12.5c0,5.1,0.9,9.4,2.8,12.7c1.9,3.3,4.4,5.8,7.7,7.4c3.2,1.6,6.8,2.4,10.8,2.4
		c2.5,0,4.7-0.4,6.6-1.1c1.8-0.8,3.4-1.6,4.7-2.6c1.3-1,2.2-1.9,2.9-2.6c0,0,0.1-0.1,0.1-0.1v5.3h13.7v-42.6H313.8z M312.8,610.5
		c-0.7,1.4-1.6,2.6-2.5,3.6c-1,1-2.1,1.7-3.4,2.2c-1.3,0.5-2.8,0.7-4.4,0.7c-2,0-3.9-0.5-5.6-1.6c-1.7-1-3.1-2.5-4.1-4.3
		c-1.1-1.8-1.6-3.9-1.6-6.1c0-2.3,0.5-4.3,1.5-6c1-1.8,2.3-3.1,3.9-4.2c1.7-1,3.5-1.5,5.4-1.5c1.8,0,3.3,0.3,4.8,0.8
		c1.4,0.6,2.7,1.3,3.7,2.3c1,1,1.8,2.2,2.3,3.7V610.5z"/>
	<path class="st0" d="M354.1,610.3c0-2.5,0.6-4.9,1.9-7.2c1.2-2.3,3-4.2,5.3-5.7c2.3-1.4,5-2,8.2-1.6l0.7-13.7
		c-1.1,0-2.7,0.5-4.8,1.5c-2.1,1-4.2,2.4-6.4,4.1c-2.1,1.8-3.8,3.9-5,6.3l-1.1-9.8h-12.3v42.6h13.6V610.3z"/>
	<path class="st0" d="M394.2,609.6c0-3.1,0.4-5.8,1.3-8.1c0.8-2.3,2-4.2,3.6-5.6c1.6-1.4,3.4-2,5.5-2c2.2,0,3.8,0.6,4.7,1.7
		c0.9,1.1,1.4,2.7,1.5,4.5v26.8h13.7V595c-0.1-3.8-1.4-6.8-4.1-9.2c-2.7-2.4-6.1-3.6-10.1-3.6c-4,0-7.3,0.8-10,2.5
		c-2.7,1.6-4.8,3.7-6.3,6.4l-1-6.8h-12.4v42.6h13.7V609.6z"/>
	<rect x="438.5" y="584.3" class="st0" width="13.7" height="42.6"/>
	<polygon class="st0" points="444.7,566.1 437.1,579.2 445.4,579.2 459.8,566.1 	"/>
	<path class="st0" d="M524.6,618.2c-2.1,0.8-4.4,1.2-6.6,1.2c-2.1,0-4.2-0.3-6.4-0.9c-2.2-0.6-4.3-1.4-6.3-2.4c-2-1-3.8-2.1-5.4-3.2
		l-4.2,7.4c1.9,1.2,4,2.4,6.4,3.6c2.4,1.2,5,2.1,7.9,2.8c2.8,0.7,5.8,1,8.8,1c4.8,0,8.9-0.9,12.4-2.6c3.4-1.8,6.1-4.2,7.9-7.2
		c1.9-3.1,2.8-6.5,2.8-10.2c0-3.3-0.5-6.1-1.5-8.4c-1-2.3-2.4-4.2-4.1-5.8c-1.7-1.6-3.7-2.9-5.8-3.9c-2.1-1.1-4.3-2-6.4-2.8
		c-2.6-1-5.1-2-7.4-3.1c-2.3-1.1-4.2-2.4-5.7-3.9c-1.5-1.5-2.2-3.4-2.2-5.6c0-2.9,1.1-5.3,3.4-7c2.2-1.8,5.2-2.6,9-2.6
		c2.7,0,5.5,0.5,8.4,1.4c2.9,0.9,5.5,2,7.9,3.2l3.6-7.3c-2.7-1.6-5.7-2.9-9.2-4c-3.5-1.1-7.5-1.7-12-1.7c-4,0.1-7.6,1-10.7,2.6
		c-3.1,1.6-5.6,3.8-7.4,6.5c-1.8,2.8-2.7,6-2.7,9.7c0,3.1,0.6,5.7,1.8,7.8c1.2,2.1,2.8,3.9,4.7,5.4c1.9,1.5,4,2.7,6.2,3.8
		c2.2,1,4.5,1.9,6.8,2.7c2.4,0.9,4.6,1.9,6.7,3.1c2,1.1,3.7,2.5,5,4.1c1.3,1.6,1.9,3.6,1.9,5.9c0,2.8-0.7,5-2.1,6.7
		C528.5,616.1,526.7,617.4,524.6,618.2z"/>
	<polygon class="st0" points="568.6,626.9 568.6,593.9 579.6,593.9 579.6,586.7 568.6,586.7 568.6,568.8 559.3,568.8 559.3,586.7 
		552,586.7 552,593.9 559.3,593.9 559.3,626.9 	"/>
	<path class="st0" d="M601.5,618.5c-1.2-1.4-1.8-3.2-1.9-5.3v-26.6h-9.2v29.8c0.1,3.6,1.4,6.5,3.8,8.7c2.4,2.2,5.4,3.4,9.2,3.4
		c2.5,0,4.8-0.4,7-1.3c2.2-0.8,4-2,5.6-3.5c1.3-1.3,2.4-2.7,3.2-4.2l0.6,7.4h8.3v-40.4H619v18.8c0,2.9-0.6,5.5-1.7,7.9
		c-1.1,2.3-2.6,4.1-4.3,5.5c-1.8,1.3-3.8,2-6,2C604.5,620.6,602.7,619.9,601.5,618.5z"/>
	<path class="st0" d="M676.7,551.4v40.5c-1.6-2.1-3.7-3.8-6.3-5c-2.9-1.4-5.9-2-9.1-2c-4,0-7.5,0.8-10.7,2.5
		c-3.2,1.7-5.7,4.1-7.6,7.3c-1.9,3.2-2.8,7-2.8,11.5c0,4.3,0.9,8.1,2.7,11.4c1.8,3.3,4.2,5.8,7.2,7.6c3,1.8,6.4,2.7,10.1,2.7
		s7.2-0.8,10.2-2.4c2.5-1.3,4.6-3,6.4-4.9v6.3h9.1v-75.5H676.7z M676.7,609.8c-0.5,2.1-1.4,3.9-2.7,5.4c-1.3,1.5-2.8,2.7-4.7,3.6
		c-1.8,0.9-4,1.4-6.4,1.4c-2.4,0-4.7-0.6-6.7-1.9c-2.1-1.3-3.7-3-5-5.1c-1.2-2.1-1.9-4.5-1.9-7.2c0-2.7,0.6-5.1,1.9-7.2
		c1.2-2.1,2.9-3.7,5-4.9c2.1-1.2,4.3-1.8,6.7-1.8c2.3,0,4.3,0.4,6.2,1.2c1.9,0.8,3.4,2,4.8,3.5c1.3,1.5,2.3,3.2,2.8,5.2V609.8z"/>
	<path class="st0" d="M706.4,566.9c-1.4,0-2.6,0.5-3.8,1.5s-1.7,2.2-1.7,3.6c0,1.5,0.6,2.7,1.7,3.7c1.1,0.9,2.4,1.4,3.8,1.4
		c1.4,0,2.6-0.5,3.7-1.4c1.1-0.9,1.7-2.2,1.7-3.7c0-1.4-0.6-2.6-1.7-3.6S707.7,566.9,706.4,566.9z"/>
	<rect x="701.5" y="586.6" class="st0" width="9.2" height="40.4"/>
	<path class="st0" d="M764.5,595.4c-1.9-3.2-4.4-5.8-7.8-7.7c-3.3-1.9-7.2-2.8-11.5-2.8c-4.4,0-8.2,0.9-11.7,2.8
		c-3.4,1.9-6.1,4.5-8,7.7c-1.9,3.2-2.9,6.9-2.9,10.9c0,4.4,1,8.1,2.9,11.4c2,3.2,4.6,5.7,7.9,7.5c3.4,1.8,7.2,2.7,11.6,2.7
		c4.4,0,8.3-1,11.6-2.9c3.3-1.9,5.9-4.5,7.8-7.8c1.8-3.2,2.8-6.9,2.8-10.9C767.3,602.3,766.4,598.7,764.5,595.4z M756.3,613.5
		c-1.1,2.1-2.7,3.8-4.6,5c-2,1.2-4.2,1.9-6.7,1.9c-2.5,0-4.7-0.6-6.6-1.9c-1.9-1.2-3.5-2.9-4.7-5c-1.2-2.1-1.8-4.5-1.8-7.1
		c0-2.5,0.6-4.9,1.7-7c1.1-2.1,2.7-3.8,4.7-5.1c2-1.3,4.2-2,6.7-2c2.5,0,4.8,0.6,6.7,1.9c1.9,1.3,3.5,3,4.6,5.1
		c1.1,2.1,1.7,4.5,1.7,7.1C758,609,757.5,611.4,756.3,613.5z"/>
	<path class="st0" d="M818.3,613.9c0,6.1-1.5,10.6-4.4,13.6c-2.9,3-6.7,4.6-11.2,4.8v9.2c4.9-0.1,9.2-1.3,13-3.4
		c3.8-2.1,6.7-5.2,8.9-9.3c2.2-4,3.3-8.9,3.3-14.6v-57.7h-9.6V613.9z"/>
	<path class="st0" d="M853.9,556.4v57.4c0,6.1-1.5,10.6-4.4,13.6c-2.9,3-6.7,4.6-11.2,4.8v9.2c4.9-0.1,9.2-1.3,13-3.4
		c3.8-2.1,6.7-5.2,8.9-9.3c2.2-4,3.3-8.9,3.3-14.6v-57.7H853.9z"/>
	<path class="st0" d="M394.4,502.7c0,2.8,2.2,5,5,5c0,0,0,0,0,0c2.8,0,5-2.2,5-5c0-43.4,29.3-81.5,71.2-92.8
		c24.8-6.6,50.7-3.2,72.9,9.6c22.2,12.8,38.1,33.5,44.8,58.3c2.2,8.1,3.3,16.5,3.3,24.9c0,2.8,2.2,5,5,5c2.8,0,5-2.2,5-5
		c0-9.2-1.2-18.5-3.6-27.4c-7.3-27.4-24.9-50.2-49.4-64.4c-24.5-14.2-53.1-17.9-80.5-10.6C426.7,412.7,394.4,454.8,394.4,502.7z"/>
	<path class="st0" d="M500.5,358.2c2.8,0,5-2.2,5-5v-60.4c0-2.8-2.2-5-5-5c-2.8,0-5,2.2-5,5v60.4C495.5,356,497.7,358.2,500.5,358.2
		z"/>
	<path class="st0" d="M421.4,375.8c0.9,1.6,2.6,2.5,4.3,2.5c0.8,0,1.7-0.2,2.5-0.7c2.4-1.4,3.2-4.4,1.8-6.8l-30.2-52.3
		c-1.4-2.4-4.4-3.2-6.8-1.8c-2.4,1.4-3.2,4.4-1.8,6.8L421.4,375.8z"/>
	<path class="st0" d="M316.2,402.1l52.3,30.2c0.8,0.5,1.6,0.7,2.5,0.7c1.7,0,3.4-0.9,4.3-2.5c1.4-2.4,0.6-5.4-1.8-6.8l-52.3-30.2
		c-2.4-1.4-5.4-0.6-6.8,1.8C313,397.7,313.8,400.7,316.2,402.1z"/>
	<path class="st0" d="M290.6,507.7H351c2.8,0,5-2.2,5-5s-2.2-5-5-5h-60.4c-2.8,0-5,2.2-5,5S287.9,507.7,290.6,507.7z"/>
	<path class="st0" d="M710.4,497.7H650c-2.8,0-5,2.2-5,5s2.2,5,5,5h60.4c2.8,0,5-2.2,5-5S713.1,497.7,710.4,497.7z"/>
	<path class="st0" d="M630,433c0.8,0,1.7-0.2,2.5-0.7l52.3-30.2c2.4-1.4,3.2-4.4,1.8-6.8c-1.4-2.4-4.4-3.2-6.8-1.8l-52.3,30.2
		c-2.4,1.4-3.2,4.4-1.8,6.8C626.6,432.1,628.2,433,630,433z"/>
	<path class="st0" d="M572.7,377.6c0.8,0.5,1.6,0.7,2.5,0.7c1.7,0,3.4-0.9,4.3-2.5l30.2-52.3c1.4-2.4,0.6-5.4-1.8-6.8
		c-2.4-1.4-5.4-0.6-6.8,1.8l-30.2,52.3C569.5,373.2,570.4,376.2,572.7,377.6z"/>
	<path class="st0" d="M594.3,678c0-2.9-2.4-5.3-5.3-5.3H348.3c-2.9,0-5.3,2.4-5.3,5.3c0,2.9,2.4,5.3,5.3,5.3h240.8
		C592,683.3,594.3,680.9,594.3,678z"/>
	<path class="st0" d="M605.9,701.2H441.6c-2.9,0-5.3,2.4-5.3,5.3c0,2.9,2.4,5.3,5.3,5.3h164.4c2.9,0,5.3-2.4,5.3-5.3
		C611.2,703.5,608.8,701.2,605.9,701.2z"/>
	<path class="st0" d="M419.8,700.7h-17.6c-3.2,0-5.7,2.6-5.7,5.7c0,3.2,2.6,5.7,5.7,5.7h17.6c3.2,0,5.7-2.6,5.7-5.7
		C425.5,703.3,423,700.7,419.8,700.7z"/>
	<path class="st0" d="M651.9,672.8h-32.3c-2.9,0-5.3,2.4-5.3,5.3c0,2.9,2.4,5.3,5.3,5.3h32.3c2.9,0,5.3-2.4,5.3-5.3
		C657.2,675.1,654.8,672.8,651.9,672.8z"/>
</g>
</svg>
