<svg width="1000" height="680" viewBox="0 0 1000 680" fill="none" xmlns="http://www.w3.org/2000/svg">
<path d="M43.9687 431.78C46.366 430.182 49.5624 429.249 53.5579 429.249C56.8875 429.249 60.3503 429.915 64.0795 431.247C67.8086 432.579 71.5377 434.177 75.1337 436.175L82.3257 421.791C78.4633 419.261 74.2014 417.13 69.4068 415.265C64.6122 413.401 58.3525 412.601 50.6279 412.601C44.7678 412.868 39.5736 414.2 35.0453 416.597C30.5171 418.994 27.0543 422.191 24.657 426.319C22.1265 430.448 20.9278 435.243 20.9278 440.703C20.9278 445.232 21.7269 449.227 23.4583 452.29C25.1897 455.487 27.3207 458.15 30.1175 460.148C32.7812 462.279 35.7112 464.011 38.9077 465.476C42.1041 466.941 45.0341 468.272 47.9642 469.338C50.4947 470.27 52.7588 471.469 54.8897 472.668C57.0207 473.866 58.7521 475.331 59.9507 476.929C61.1494 478.528 61.8153 480.259 61.8153 482.124C61.8153 484.92 61.0162 487.051 59.5512 488.65C58.0862 490.248 56.0884 491.313 53.8243 491.979C51.5601 492.645 49.296 492.911 47.0319 492.911C44.7678 492.911 42.3704 492.512 39.5736 491.846C36.9099 491.18 34.2462 490.115 31.5825 488.916C28.9189 487.717 26.5215 486.252 24.2574 484.521L16 499.171C19.3296 501.568 22.9256 503.433 26.5215 504.898C30.1175 506.363 33.8467 507.562 37.5758 508.228C41.305 508.894 45.0341 509.293 48.6301 509.293C55.6889 509.293 61.6821 507.961 66.6099 505.431C71.4046 502.9 75.1337 499.571 77.6642 495.309C80.1947 491.18 81.3934 486.652 81.3934 481.857C81.3934 477.329 80.7275 473.333 79.3956 470.27C78.0638 467.074 76.3324 464.41 74.2014 462.412C72.0705 460.281 69.54 458.55 66.8763 457.085C64.2126 455.62 61.4158 454.421 58.6189 453.356C55.5557 452.29 52.6256 450.958 49.8287 449.627C47.0319 448.295 44.7678 446.697 42.9032 444.832C41.1718 443.101 40.2395 441.103 40.2395 438.839C40.5059 435.909 41.5713 433.378 43.9687 431.78Z" fill="#777777"/>
<path d="M141.992 453.089C137.197 450.426 131.604 449.094 125.078 449.094C118.685 449.094 112.958 450.426 108.03 453.089C103.102 455.753 99.24 459.349 96.5763 463.877C93.9127 468.406 92.4476 473.6 92.4476 479.46C92.4476 485.853 93.7795 491.313 96.5763 495.975C99.3732 500.503 103.236 504.099 108.03 506.496C112.958 508.894 118.552 510.092 124.678 510.092C131.337 510.092 137.064 508.76 141.859 506.097C146.654 503.433 150.25 499.704 152.78 495.176C155.311 490.514 156.642 485.32 156.642 479.46C156.642 473.6 155.311 468.406 152.78 463.877C150.516 459.349 146.787 455.753 141.992 453.089ZM136.798 487.717C135.732 490.115 134.134 491.979 132.003 493.311C129.872 494.643 127.475 495.442 124.545 495.442C121.881 495.442 119.617 494.776 117.486 493.311C115.355 491.979 113.757 489.981 112.558 487.717C111.36 485.32 110.694 482.656 110.694 479.726C110.694 476.663 111.36 473.999 112.558 471.735C113.757 469.338 115.355 467.473 117.486 466.142C119.617 464.81 121.881 464.011 124.545 464.011C127.342 464.011 129.872 464.676 132.003 466.142C134.134 467.473 135.732 469.338 136.798 471.735C137.863 474.133 138.529 476.796 138.529 479.726C138.529 482.656 137.997 485.32 136.798 487.717Z" fill="#777777"/>
<path d="M189.406 406.209H171.159V508.627H189.406V406.209Z" fill="#777777"/>
<path d="M240.948 442.568L260.26 424.988H240.149L230.027 442.568H240.948Z" fill="#777777"/>
<path d="M250.937 457.751C249.072 455.62 246.808 453.622 244.011 451.891C241.081 450.026 236.819 449.094 231.225 449.094C226.431 449.094 221.903 450.426 217.774 452.956C213.512 455.487 210.049 459.083 207.519 463.744C204.988 468.406 203.656 473.999 203.656 480.392C203.656 487.185 204.855 492.912 207.386 497.307C209.916 501.702 213.246 505.031 217.641 507.162C221.903 509.293 226.697 510.359 232.025 510.359C235.354 510.359 238.284 509.826 240.815 508.894C243.345 507.961 245.343 506.763 247.074 505.431C248.806 504.099 250.004 502.9 250.937 501.968L251.07 501.835V508.894H269.316V452.157H252.402L250.937 457.751ZM247.474 491.58C246.142 492.778 244.677 493.844 242.946 494.377C241.214 495.042 239.217 495.309 237.086 495.309C234.422 495.309 231.891 494.643 229.627 493.178C227.363 491.846 225.499 489.848 224.167 487.451C222.835 485.054 222.036 482.257 222.036 479.327C222.036 476.264 222.702 473.6 224.034 471.336C225.365 468.938 227.097 467.207 229.228 465.875C231.492 464.543 233.889 463.877 236.42 463.877C238.817 463.877 240.815 464.277 242.812 464.943C244.677 465.742 246.408 466.674 247.74 468.006C249.072 469.338 250.138 470.936 250.804 472.934V486.785C249.871 488.783 248.806 490.381 247.474 491.58Z" fill="#777777"/>
<path d="M305.808 486.519C305.808 483.189 306.608 479.993 308.339 476.929C309.937 473.866 312.334 471.336 315.398 469.338C318.461 467.473 322.057 466.674 326.319 467.207L327.251 448.961C325.786 448.961 323.655 449.627 320.858 450.958C318.061 452.29 315.265 454.155 312.334 456.419C309.538 458.816 307.273 461.613 305.675 464.81L304.21 451.758H287.829V508.494H305.942V486.519H305.808Z" fill="#777777"/>
<path d="M359.215 485.586C359.215 481.458 359.748 477.862 360.947 474.798C362.012 471.735 363.61 469.205 365.741 467.34C367.872 465.476 370.27 464.677 373.066 464.677C375.997 464.677 378.127 465.476 379.326 466.941C380.525 468.406 381.191 470.537 381.324 472.934V508.627H399.57V466.142C399.437 461.081 397.706 457.085 394.11 453.889C390.514 450.692 385.985 449.094 380.658 449.094C375.331 449.094 370.936 450.159 367.34 452.424C363.744 454.555 360.947 457.351 358.949 460.947L357.617 451.891H341.102V508.627H359.348V485.586H359.215Z" fill="#777777"/>
<path d="M436.462 451.891H418.216V508.627H436.462V451.891Z" fill="#777777"/>
<path d="M426.473 427.651L416.351 445.098H427.406L446.584 427.651H426.473Z" fill="#777777"/>
<path d="M532.887 497.04C530.09 498.106 527.027 498.638 524.097 498.638C521.3 498.638 518.504 498.239 515.573 497.44C512.643 496.641 509.847 495.575 507.183 494.243C504.519 492.911 502.122 491.446 499.991 489.981L494.397 499.837C496.928 501.435 499.725 503.033 502.921 504.632C506.117 506.23 509.58 507.429 513.443 508.361C517.172 509.293 521.167 509.693 525.163 509.693C531.556 509.693 537.016 508.494 541.678 506.23C546.206 503.832 549.802 500.636 552.199 496.641C554.73 492.512 555.928 487.984 555.928 483.056C555.928 478.661 555.262 474.932 553.931 471.868C552.599 468.805 550.734 466.275 548.47 464.144C546.206 462.013 543.542 460.281 540.745 458.949C537.948 457.484 535.018 456.286 532.221 455.22C528.759 453.888 525.429 452.557 522.366 451.092C519.303 449.627 516.772 447.895 514.774 445.897C512.777 443.9 511.844 441.369 511.844 438.439C511.844 434.577 513.309 431.38 516.373 429.116C519.303 426.719 523.298 425.653 528.359 425.653C531.955 425.653 535.684 426.319 539.547 427.518C543.409 428.717 546.872 430.182 550.068 431.78L554.863 422.058C551.267 419.927 547.271 418.195 542.61 416.73C537.948 415.265 532.621 414.466 526.628 414.466C521.3 414.599 516.506 415.798 512.377 417.929C508.248 420.06 504.919 422.99 502.521 426.586C500.124 430.315 498.925 434.577 498.925 439.505C498.925 443.633 499.725 447.096 501.323 449.893C502.921 452.69 505.052 455.087 507.582 457.085C510.113 459.083 512.91 460.681 515.84 462.146C518.77 463.478 521.833 464.676 524.896 465.742C528.093 466.941 531.023 468.272 533.82 469.871C536.483 471.336 538.747 473.2 540.479 475.331C542.21 477.462 543.009 480.126 543.009 483.189C543.009 486.918 542.077 489.848 540.212 492.112C538.082 494.243 535.684 495.975 532.887 497.04Z" fill="#777777"/>
<path d="M591.488 508.627V464.676H606.139V455.087H591.488V431.247H579.102V455.087H569.38V464.676H579.102V508.627H591.488Z" fill="#777777"/>
<path d="M635.306 497.44C633.708 495.575 632.909 493.178 632.775 490.381V454.954H620.522V494.643C620.656 499.437 622.387 503.3 625.583 506.23C628.78 509.16 632.775 510.758 637.836 510.758C641.166 510.758 644.229 510.225 647.159 509.027C650.089 507.961 652.487 506.363 654.618 504.365C656.349 502.634 657.814 500.769 658.879 498.772L659.679 508.627H670.733V454.821H658.613V479.859C658.613 483.722 657.814 487.185 656.349 490.381C654.884 493.444 652.886 495.842 650.622 497.706C648.225 499.437 645.561 500.37 642.631 500.37C639.301 500.237 636.904 499.304 635.306 497.44Z" fill="#777777"/>
<path d="M735.46 462.013C733.329 459.216 730.533 456.952 727.07 455.354C723.207 453.489 719.212 452.69 714.95 452.69C709.623 452.69 704.961 453.755 700.699 456.02C696.437 458.284 693.108 461.48 690.577 465.742C688.047 470.004 686.848 475.065 686.848 481.058C686.848 486.785 688.047 491.846 690.444 496.241C692.841 500.636 696.038 503.966 700.033 506.363C704.029 508.76 708.557 509.959 713.485 509.959C718.413 509.959 723.074 508.894 727.07 506.763C730.399 505.031 733.196 502.767 735.593 500.237V508.627H747.713V408.073H735.593V462.013H735.46ZM731.864 493.045C730.133 495.042 728.135 496.641 725.605 497.972C723.074 499.171 720.277 499.837 717.081 499.837C713.885 499.837 710.954 499.038 708.158 497.307C705.361 495.575 703.23 493.311 701.498 490.514C699.9 487.717 698.968 484.521 698.968 480.925C698.968 477.329 699.767 474.133 701.498 471.336C703.097 468.539 705.361 466.408 708.158 464.81C710.954 463.211 713.885 462.412 717.081 462.412C720.144 462.412 722.808 462.945 725.338 464.011C727.869 465.076 729.867 466.674 731.731 468.672C733.463 470.67 734.794 472.934 735.46 475.597V485.853C734.794 488.516 733.596 490.914 731.864 493.045Z" fill="#777777"/>
<path d="M775.016 428.717C773.151 428.717 771.553 429.383 769.955 430.715C768.357 432.046 767.691 433.645 767.691 435.509C767.691 437.507 768.49 439.105 769.955 440.437C771.42 441.636 773.151 442.301 775.016 442.301C776.881 442.301 778.479 441.636 779.944 440.437C781.409 439.238 782.208 437.507 782.208 435.509C782.208 433.645 781.409 432.046 779.944 430.715C778.479 429.383 776.747 428.717 775.016 428.717Z" fill="#777777"/>
<path d="M780.743 454.954H768.49V508.76H780.743V454.954Z" fill="#777777"/>
<path d="M842.141 456.419C837.746 453.889 832.551 452.69 826.825 452.69C820.964 452.69 815.903 453.889 811.242 456.419C806.714 458.95 803.118 462.412 800.587 466.674C798.057 471.069 796.725 475.864 796.725 481.191C796.725 487.051 798.057 491.979 800.587 496.374C803.118 500.636 806.714 503.966 811.109 506.363C815.504 508.76 820.698 509.959 826.558 509.959C832.418 509.959 837.612 508.627 842.008 506.097C846.403 503.566 849.865 500.103 852.396 495.708C854.926 491.313 856.125 486.519 856.125 481.191C856.125 475.864 854.926 470.936 852.396 466.674C849.999 462.412 846.536 458.95 842.141 456.419ZM841.475 490.781C840.01 493.577 837.879 495.842 835.348 497.44C832.818 499.038 829.755 499.97 826.425 499.97C823.095 499.97 820.165 499.171 817.635 497.44C815.104 495.842 812.973 493.577 811.375 490.781C809.777 487.984 808.978 484.787 808.978 481.324C808.978 477.995 809.777 474.798 811.242 472.002C812.707 469.205 814.838 466.941 817.502 465.209C820.165 463.478 823.095 462.679 826.425 462.679C829.755 462.679 832.818 463.478 835.348 465.209C837.879 466.941 840.01 469.205 841.475 472.002C842.94 474.798 843.739 477.995 843.739 481.458C843.739 484.92 843.073 487.984 841.475 490.781Z" fill="#777777"/>
<path d="M924.049 491.313C924.049 499.438 922.051 505.431 918.189 509.426C914.327 513.422 909.265 515.553 903.272 515.819V528.072C909.798 527.939 915.525 526.341 920.586 523.544C925.647 520.747 929.509 516.618 932.439 511.158C935.37 505.83 936.835 499.304 936.835 491.713V414.866H924.049V491.313V491.313Z" fill="#777777"/>
<path d="M971.463 414.732V491.18C971.463 499.304 969.465 505.298 965.602 509.293C961.74 513.289 956.679 515.42 950.686 515.686V527.939C957.212 527.806 962.939 526.207 968 523.411C973.061 520.614 976.923 516.485 979.853 511.024C982.783 505.697 984.248 499.171 984.248 491.58V414.732H971.463Z" fill="#777777"/>
<path d="M359.482 343.213C359.482 346.942 362.412 349.872 366.141 349.872C369.87 349.872 372.8 346.942 372.8 343.213C372.8 285.411 411.823 234.668 467.627 219.618C500.657 210.828 535.151 215.356 564.718 232.403C594.285 249.451 615.461 277.02 624.385 310.05C627.315 320.838 628.78 332.025 628.78 343.213C628.78 346.942 631.71 349.872 635.439 349.872C639.168 349.872 642.098 346.942 642.098 343.213C642.098 330.96 640.5 318.573 637.304 306.72C627.581 270.228 604.141 239.862 571.511 220.95C538.881 202.037 500.79 197.11 464.298 206.832C402.5 223.347 359.482 279.417 359.482 343.213Z" fill="#F761A6"/>
<path d="M500.79 150.762C504.519 150.762 507.449 147.832 507.449 144.102V63.6592C507.449 59.93 504.519 57 500.79 57C497.061 57 494.131 59.93 494.131 63.6592V144.102C494.131 147.832 497.061 150.762 500.79 150.762Z" fill="#F761A6"/>
<path d="M395.441 174.202C396.64 176.333 398.904 177.532 401.168 177.532C402.234 177.532 403.432 177.265 404.498 176.599C407.694 174.735 408.76 170.739 406.895 167.543L366.674 97.8875C364.809 94.6911 360.814 93.6257 357.617 95.4902C354.421 97.3548 353.355 101.35 355.22 104.547L395.441 174.202Z" fill="#F761A6"/>
<path d="M255.332 209.229L324.987 249.451C326.053 250.117 327.118 250.383 328.317 250.383C330.581 250.383 332.845 249.185 334.044 247.054C335.908 243.857 334.843 239.862 331.646 237.997L261.991 197.776C258.795 195.911 254.799 196.976 252.934 200.173C251.07 203.369 252.135 207.365 255.332 209.229Z" fill="#F761A6"/>
<path d="M221.237 349.872H301.68C305.409 349.872 308.339 346.942 308.339 343.213C308.339 339.483 305.409 336.553 301.68 336.553H221.237C217.507 336.553 214.577 339.483 214.577 343.213C214.577 346.942 217.641 349.872 221.237 349.872Z" fill="#F761A6"/>
<path d="M780.343 336.553H699.9C696.171 336.553 693.241 339.483 693.241 343.213C693.241 346.942 696.171 349.872 699.9 349.872H780.343C784.073 349.872 787.003 346.942 787.003 343.213C787.003 339.483 783.939 336.553 780.343 336.553Z" fill="#F761A6"/>
<path d="M673.263 250.383C674.329 250.383 675.528 250.117 676.593 249.451L746.248 209.229C749.445 207.365 750.51 203.369 748.646 200.173C746.781 196.976 742.785 195.911 739.589 197.776L669.934 237.997C666.737 239.862 665.672 243.857 667.537 247.054C668.735 249.185 670.866 250.383 673.263 250.383Z" fill="#F761A6"/>
<path d="M596.949 176.599C598.014 177.265 599.08 177.532 600.279 177.532C602.543 177.532 604.807 176.333 606.005 174.202L646.227 104.547C648.092 101.35 647.026 97.3548 643.83 95.4902C640.633 93.6257 636.638 94.6911 634.773 97.8875L594.552 167.543C592.687 170.739 593.886 174.735 596.949 176.599Z" fill="#F761A6"/>
<path d="M625.717 576.684C625.717 572.822 622.52 569.626 618.658 569.626H298.084C294.221 569.626 291.025 572.822 291.025 576.684C291.025 580.547 294.221 583.743 298.084 583.743H618.791C622.653 583.743 625.717 580.547 625.717 576.684Z" fill="#F761A6"/>
<path d="M641.166 607.583H422.345C418.482 607.583 415.286 610.779 415.286 614.642C415.286 618.504 418.482 621.7 422.345 621.7H641.299C645.162 621.7 648.358 618.504 648.358 614.642C648.225 610.646 645.028 607.583 641.166 607.583Z" fill="#F761A6"/>
<path d="M393.31 606.917H369.87C365.608 606.917 362.279 610.38 362.279 614.509C362.279 618.77 365.741 622.1 369.87 622.1H393.31C397.572 622.1 400.902 618.637 400.902 614.509C400.902 610.38 397.572 606.917 393.31 606.917Z" fill="#F761A6"/>
<path d="M702.431 569.759H659.412C655.55 569.759 652.354 572.955 652.354 576.817C652.354 580.68 655.55 583.876 659.412 583.876H702.431C706.293 583.876 709.49 580.68 709.49 576.817C709.49 572.822 706.293 569.759 702.431 569.759Z" fill="#F761A6"/>
</svg>
